<?xml version="1.0" encoding="UTF-8" standalone="no"?>
<!DOCTYPE svg PUBLIC "-//W3C//DTD SVG 1.1//EN"
 "http://www.w3.org/Graphics/SVG/1.1/DTD/svg11.dtd">
<!-- Generated by graphviz version 2.38.0 (20140413.2041)
 -->
<!-- Title: dependencies Pages: 1 -->
<svg width="2853pt" height="424pt"
 viewBox="0.00 0.00 2853.00 424.00" xmlns="http://www.w3.org/2000/svg" xmlns:xlink="http://www.w3.org/1999/xlink">
<g id="graph0" class="graph" transform="scale(1 1) rotate(0) translate(4 420)">
<title>dependencies</title>
<polygon fill="white" stroke="none" points="-4,4 -4,-420 2849,-420 2849,4 -4,4"/>
<g id="clust1" class="cluster"><title>cluster_CoreModule</title>
<polygon fill="none" stroke="black" stroke-dasharray="1,5" points="441,-8 441,-204 809,-204 809,-8 441,-8"/>
</g>
<g id="clust3" class="cluster"><title>cluster_CoreModule_imports</title>
<polygon fill="none" stroke="black" points="577,-16 577,-68 801,-68 801,-16 577,-16"/>
</g>
<g id="clust4" class="cluster"><title>cluster_CoreModule_exports</title>
<polygon fill="none" stroke="black" points="449,-144 449,-196 801,-196 801,-144 449,-144"/>
</g>
<g id="clust7" class="cluster"><title>cluster_SharedModule</title>
<polygon fill="none" stroke="black" stroke-dasharray="1,5" points="817,-8 817,-204 1467,-204 1467,-8 817,-8"/>
</g>
<g id="clust8" class="cluster"><title>cluster_SharedModule_declarations</title>
<polygon fill="none" stroke="black" points="987,-16 987,-68 1459,-68 1459,-16 987,-16"/>
</g>
<g id="clust12" class="cluster"><title>cluster_SharedModule_imports</title>
<polygon fill="none" stroke="black" points="825,-16 825,-68 979,-68 979,-16 825,-16"/>
</g>
<g id="clust13" class="cluster"><title>cluster_SharedModule_exports</title>
<polygon fill="none" stroke="black" points="825,-144 825,-196 1170,-196 1170,-144 825,-144"/>
</g>
<g id="clust16" class="cluster"><title>cluster_WebBleModule</title>
<polygon fill="none" stroke="black" stroke-dasharray="1,5" points="1497,-8 1497,-196 2677,-196 2677,-8 1497,-8"/>
</g>
<g id="clust17" class="cluster"><title>cluster_WebBleModule_declarations</title>
<polygon fill="none" stroke="black" points="1897,-76 1897,-128 2669,-128 2669,-76 1897,-76"/>
</g>
<g id="clust19" class="cluster"><title>cluster_WebBleModule_BatteryLevelComponent_providers</title>
<polygon fill="none" stroke="black" points="2236,-16 2236,-68 2586,-68 2586,-16 2236,-16"/>
</g>
<g id="clust20" class="cluster"><title>cluster_WebBleModule_HeartMonitorComponent_providers</title>
<polygon fill="none" stroke="black" points="2026,-16 2026,-68 2228,-68 2228,-16 2026,-16"/>
</g>
<g id="clust21" class="cluster"><title>cluster_WebBleModule_LuxometerComponent_providers</title>
<polygon fill="none" stroke="black" points="1880,-16 1880,-68 2018,-68 2018,-16 1880,-16"/>
</g>
<g id="clust23" class="cluster"><title>cluster_WebBleModule_imports</title>
<polygon fill="none" stroke="black" points="1729,-76 1729,-128 1889,-128 1889,-76 1729,-76"/>
</g>
<g id="clust26" class="cluster"><title>cluster_WebBleModule_providers</title>
<polygon fill="none" stroke="black" points="1505,-76 1505,-128 1721,-128 1721,-76 1505,-76"/>
</g>
<g id="clust27" class="cluster"><title>cluster_ApiModule</title>
<polygon fill="none" stroke="black" stroke-dasharray="1,5" points="2685,-136 2685,-340 2837,-340 2837,-136 2685,-136"/>
</g>
<g id="clust29" class="cluster"><title>cluster_ApiModule_imports</title>
<polygon fill="none" stroke="black" points="2693,-144 2693,-196 2829,-196 2829,-144 2693,-144"/>
</g>
<g id="clust30" class="cluster"><title>cluster_ApiModule_exports</title>
<polygon fill="none" stroke="black" points="2693,-280 2693,-332 2817,-332 2817,-280 2693,-280"/>
</g>
<g id="clust33" class="cluster"><title>cluster_AppModule</title>
<polygon fill="none" stroke="black" stroke-dasharray="1,5" points="8,-212 8,-408 417,-408 417,-212 8,-212"/>
</g>
<g id="clust34" class="cluster"><title>cluster_AppModule_declarations</title>
<polygon fill="none" stroke="black" points="287,-220 287,-272 409,-272 409,-220 287,-220"/>
</g>
<g id="clust36" class="cluster"><title>cluster_AppModule_imports</title>
<polygon fill="none" stroke="black" points="16,-220 16,-272 279,-272 279,-220 16,-220"/>
</g>
<g id="clust38" class="cluster"><title>cluster_AppModule_bootstrap</title>
<polygon fill="none" stroke="black" points="285,-348 285,-400 409,-400 409,-348 285,-348"/>
</g>
<!-- CommonModule -->
<g id="node1" class="node"><title>CommonModule</title>
<polygon fill="#8dd3c7" stroke="black" points="792.668,-60 789.668,-64 768.668,-64 765.668,-60 681.332,-60 681.332,-24 792.668,-24 792.668,-60"/>
<text text-anchor="middle" x="737" y="-37.8" font-family="Times,serif" font-size="14.00">CommonModule</text>
</g>
<!-- CoreModule -->
<g id="node3" class="node"><title>CoreModule</title>
<polygon fill="#8dd3c7" stroke="black" points="664.262,-120 661.262,-124 640.262,-124 637.262,-120 577.738,-120 577.738,-84 664.262,-84 664.262,-120"/>
<text text-anchor="middle" x="621" y="-97.8" font-family="Times,serif" font-size="14.00">CoreModule</text>
</g>
<!-- CommonModule&#45;&gt;CoreModule -->
<g id="edge1" class="edge"><title>CommonModule&#45;&gt;CoreModule</title>
<path fill="none" stroke="black" d="M718.305,-60.2396C718.305,-75.5706 718.305,-95 718.305,-95 718.305,-95 674.53,-95 674.53,-95"/>
<polygon fill="black" stroke="black" points="674.53,-91.5001 664.53,-95 674.53,-98.5001 674.53,-91.5001"/>
</g>
<!-- SharedModule -->
<g id="node10" class="node"><title>SharedModule</title>
<polygon fill="#8dd3c7" stroke="black" points="1036.42,-120 1033.42,-124 1012.42,-124 1009.42,-120 937.577,-120 937.577,-84 1036.42,-84 1036.42,-120"/>
<text text-anchor="middle" x="987" y="-97.8" font-family="Times,serif" font-size="14.00">SharedModule</text>
</g>
<!-- CommonModule&#45;&gt;SharedModule -->
<g id="edge10" class="edge"><title>CommonModule&#45;&gt;SharedModule</title>
<path fill="none" stroke="black" d="M774.014,-60.1467C774.014,-73.7395 774.014,-90 774.014,-90 774.014,-90 927.601,-90 927.601,-90"/>
<polygon fill="black" stroke="black" points="927.601,-93.5001 937.601,-90 927.601,-86.5001 927.601,-93.5001"/>
</g>
<!-- WebBleModule -->
<g id="node19" class="node"><title>WebBleModule</title>
<polygon fill="#8dd3c7" stroke="black" points="2051.92,-188 2048.92,-192 2027.92,-192 2024.92,-188 1946.08,-188 1946.08,-152 2051.92,-152 2051.92,-188"/>
<text text-anchor="middle" x="1999" y="-165.8" font-family="Times,serif" font-size="14.00">WebBleModule</text>
</g>
<!-- CommonModule&#45;&gt;WebBleModule -->
<g id="edge27" class="edge"><title>CommonModule&#45;&gt;WebBleModule</title>
<path fill="none" stroke="black" d="M736.875,-60.1241C736.875,-87.4395 736.875,-136 736.875,-136 736.875,-136 1954.49,-136 1954.49,-136 1954.49,-136 1954.49,-141.806 1954.49,-141.806"/>
<polygon fill="black" stroke="black" points="1950.99,-141.806 1954.49,-151.806 1957.99,-141.806 1950.99,-141.806"/>
</g>
<!-- MdModule -->
<g id="node2" class="node"><title>MdModule</title>
<polygon fill="#8dd3c7" stroke="black" points="663.494,-60 660.494,-64 639.494,-64 636.494,-60 584.506,-60 584.506,-24 663.494,-24 663.494,-60"/>
<text text-anchor="middle" x="624" y="-37.8" font-family="Times,serif" font-size="14.00">MdModule</text>
</g>
<!-- MdModule&#45;&gt;CoreModule -->
<g id="edge2" class="edge"><title>MdModule&#45;&gt;CoreModule</title>
<path fill="none" stroke="black" d="M624,-60.002C624,-60.002 624,-73.5954 624,-73.5954"/>
<polygon fill="black" stroke="black" points="620.5,-73.5953 624,-83.5954 627.5,-73.5954 620.5,-73.5953"/>
</g>
<!-- MdModule&#45;&gt;SharedModule -->
<g id="edge9" class="edge"><title>MdModule&#45;&gt;SharedModule</title>
<path fill="none" stroke="black" d="M663.61,-42C669.189,-42 673.071,-42 673.071,-42 673.071,-42 673.071,-100 673.071,-100 673.071,-100 927.603,-100 927.603,-100"/>
<polygon fill="black" stroke="black" points="927.603,-103.5 937.603,-100 927.603,-96.5001 927.603,-103.5"/>
</g>
<!-- CommonModule  -->
<g id="node4" class="node"><title>CommonModule </title>
<polygon fill="#fb8072" stroke="black" points="792.668,-188 677.332,-188 677.332,-152 792.668,-152 792.668,-188"/>
<text text-anchor="middle" x="735" y="-165.8" font-family="Times,serif" font-size="14.00">CommonModule </text>
</g>
<!-- CoreModule&#45;&gt;CommonModule  -->
<g id="edge3" class="edge"><title>CoreModule&#45;&gt;CommonModule </title>
<path fill="none" stroke="black" stroke-dasharray="5,2" d="M664.513,-115C682.723,-115 699.736,-115 699.736,-115 699.736,-115 699.736,-141.991 699.736,-141.991"/>
<polygon fill="black" stroke="black" points="696.236,-141.991 699.736,-151.991 703.236,-141.991 696.236,-141.991"/>
</g>
<!-- RouterModule  -->
<g id="node5" class="node"><title>RouterModule </title>
<polygon fill="#fb8072" stroke="black" points="558.652,-188 457.348,-188 457.348,-152 558.652,-152 558.652,-188"/>
<text text-anchor="middle" x="508" y="-165.8" font-family="Times,serif" font-size="14.00">RouterModule </text>
</g>
<!-- CoreModule&#45;&gt;RouterModule  -->
<g id="edge4" class="edge"><title>CoreModule&#45;&gt;RouterModule </title>
<path fill="none" stroke="black" stroke-dasharray="5,2" d="M577.634,-108C545.768,-108 508,-108 508,-108 508,-108 508,-141.733 508,-141.733"/>
<polygon fill="black" stroke="black" points="504.5,-141.733 508,-151.733 511.5,-141.733 504.5,-141.733"/>
</g>
<!-- MdModule  -->
<g id="node6" class="node"><title>MdModule </title>
<polygon fill="#fb8072" stroke="black" points="659.496,-188 576.504,-188 576.504,-152 659.496,-152 659.496,-188"/>
<text text-anchor="middle" x="618" y="-165.8" font-family="Times,serif" font-size="14.00">MdModule </text>
</g>
<!-- CoreModule&#45;&gt;MdModule  -->
<g id="edge5" class="edge"><title>CoreModule&#45;&gt;MdModule </title>
<path fill="none" stroke="black" stroke-dasharray="5,2" d="M618.433,-120.223C618.433,-120.223 618.433,-141.727 618.433,-141.727"/>
<polygon fill="black" stroke="black" points="614.933,-141.727 618.433,-151.727 621.933,-141.727 614.933,-141.727"/>
</g>
<!-- AppModule -->
<g id="node30" class="node"><title>AppModule</title>
<polygon fill="#8dd3c7" stroke="black" points="389.657,-324 386.657,-328 365.657,-328 362.657,-324 306.343,-324 306.343,-288 389.657,-288 389.657,-324"/>
<text text-anchor="middle" x="348" y="-301.8" font-family="Times,serif" font-size="14.00">AppModule</text>
</g>
<!-- CoreModule&#45;&gt;AppModule -->
<g id="edge35" class="edge"><title>CoreModule&#45;&gt;AppModule</title>
<path fill="none" stroke="black" d="M577.534,-96C521.017,-96 429.447,-96 429.447,-96 429.447,-96 429.447,-297 429.447,-297 429.447,-297 399.678,-297 399.678,-297"/>
<polygon fill="black" stroke="black" points="399.678,-293.5 389.678,-297 399.678,-300.5 399.678,-293.5"/>
</g>
<!-- TimeseriesChartComponent -->
<g id="node7" class="node"><title>TimeseriesChartComponent</title>
<polygon fill="#ffffb3" stroke="black" points="1168.85,-60 995.147,-60 995.147,-24 1168.85,-24 1168.85,-60"/>
<text text-anchor="middle" x="1082" y="-37.8" font-family="Times,serif" font-size="14.00">TimeseriesChartComponent</text>
</g>
<!-- TimeseriesChartComponent&#45;&gt;SharedModule -->
<g id="edge6" class="edge"><title>TimeseriesChartComponent&#45;&gt;SharedModule</title>
<path fill="none" stroke="black" d="M1015.64,-60.002C1015.64,-60.002 1015.64,-73.5954 1015.64,-73.5954"/>
<polygon fill="black" stroke="black" points="1012.14,-73.5953 1015.64,-83.5954 1019.14,-73.5954 1012.14,-73.5953"/>
</g>
<!-- HomeComponent -->
<g id="node8" class="node"><title>HomeComponent</title>
<polygon fill="#ffffb3" stroke="black" points="1450.55,-60 1335.45,-60 1335.45,-24 1450.55,-24 1450.55,-60"/>
<text text-anchor="middle" x="1393" y="-37.8" font-family="Times,serif" font-size="14.00">HomeComponent</text>
</g>
<!-- HomeComponent&#45;&gt;SharedModule -->
<g id="edge7" class="edge"><title>HomeComponent&#45;&gt;SharedModule</title>
<path fill="none" stroke="black" d="M1393,-60.002C1393,-77.6754 1393,-102 1393,-102 1393,-102 1046.38,-102 1046.38,-102"/>
<polygon fill="black" stroke="black" points="1046.38,-98.5001 1036.38,-102 1046.38,-105.5 1046.38,-98.5001"/>
</g>
<!-- ApiCardComponent -->
<g id="node9" class="node"><title>ApiCardComponent</title>
<polygon fill="#ffffb3" stroke="black" points="1316.54,-60 1187.46,-60 1187.46,-24 1316.54,-24 1316.54,-60"/>
<text text-anchor="middle" x="1252" y="-37.8" font-family="Times,serif" font-size="14.00">ApiCardComponent</text>
</g>
<!-- ApiCardComponent&#45;&gt;SharedModule -->
<g id="edge8" class="edge"><title>ApiCardComponent&#45;&gt;SharedModule</title>
<path fill="none" stroke="black" d="M1252,-60.1243C1252,-74.7832 1252,-93 1252,-93 1252,-93 1046.22,-93 1046.22,-93"/>
<polygon fill="black" stroke="black" points="1046.22,-89.5001 1036.22,-93 1046.22,-96.5001 1046.22,-89.5001"/>
</g>
<!-- SharedModule&#45;&gt;CommonModule  -->
<g id="edge13" class="edge"><title>SharedModule&#45;&gt;CommonModule </title>
<path fill="none" stroke="black" stroke-dasharray="5,2" d="M937.61,-110C869.604,-110 755.445,-110 755.445,-110 755.445,-110 755.445,-141.998 755.445,-141.998"/>
<polygon fill="black" stroke="black" points="751.945,-141.998 755.445,-151.998 758.945,-141.998 751.945,-141.998"/>
</g>
<!-- SharedModule&#45;&gt;MdModule  -->
<g id="edge12" class="edge"><title>SharedModule&#45;&gt;MdModule </title>
<path fill="none" stroke="black" stroke-dasharray="5,2" d="M937.619,-105C848.222,-105 668.726,-105 668.726,-105 668.726,-105 668.726,-170 668.726,-170 668.726,-170 667.796,-170 667.796,-170"/>
<polygon fill="black" stroke="black" points="669.422,-166.5 659.422,-170 669.422,-173.5 669.422,-166.5"/>
</g>
<!-- TimeseriesChartComponent  -->
<g id="node12" class="node"><title>TimeseriesChartComponent </title>
<polygon fill="#fb8072" stroke="black" points="1161.85,-188 984.147,-188 984.147,-152 1161.85,-152 1161.85,-188"/>
<text text-anchor="middle" x="1073" y="-165.8" font-family="Times,serif" font-size="14.00">TimeseriesChartComponent </text>
</g>
<!-- SharedModule&#45;&gt;TimeseriesChartComponent  -->
<g id="edge14" class="edge"><title>SharedModule&#45;&gt;TimeseriesChartComponent </title>
<path fill="none" stroke="black" stroke-dasharray="5,2" d="M1010.27,-120.223C1010.27,-120.223 1010.27,-141.727 1010.27,-141.727"/>
<polygon fill="black" stroke="black" points="1006.77,-141.727 1010.27,-151.727 1013.77,-141.727 1006.77,-141.727"/>
</g>
<!-- ApiCardComponent  -->
<g id="node13" class="node"><title>ApiCardComponent </title>
<polygon fill="#fb8072" stroke="black" points="966.541,-188 833.459,-188 833.459,-152 966.541,-152 966.541,-188"/>
<text text-anchor="middle" x="900" y="-165.8" font-family="Times,serif" font-size="14.00">ApiCardComponent </text>
</g>
<!-- SharedModule&#45;&gt;ApiCardComponent  -->
<g id="edge15" class="edge"><title>SharedModule&#45;&gt;ApiCardComponent </title>
<path fill="none" stroke="black" stroke-dasharray="5,2" d="M952.155,-120.223C952.155,-120.223 952.155,-141.727 952.155,-141.727"/>
<polygon fill="black" stroke="black" points="948.655,-141.727 952.155,-151.727 955.655,-141.727 948.655,-141.727"/>
</g>
<!-- SharedModule&#45;&gt;WebBleModule -->
<g id="edge28" class="edge"><title>SharedModule&#45;&gt;WebBleModule</title>
<path fill="none" stroke="black" d="M1036.67,-111C1089.42,-111 1165.3,-111 1165.3,-111 1165.3,-111 1165.3,-179 1165.3,-179 1165.3,-179 1936.22,-179 1936.22,-179"/>
<polygon fill="black" stroke="black" points="1936.22,-182.5 1946.22,-179 1936.22,-175.5 1936.22,-182.5"/>
</g>
<!-- SharedModule&#45;&gt;AppModule -->
<g id="edge37" class="edge"><title>SharedModule&#45;&gt;AppModule</title>
<path fill="none" stroke="black" d="M975.422,-120.104C975.422,-170.03 975.422,-306 975.422,-306 975.422,-306 400.141,-306 400.141,-306"/>
<polygon fill="black" stroke="black" points="400.141,-302.5 390.141,-306 400.141,-309.5 400.141,-302.5"/>
</g>
<!-- SharedRoutesModule -->
<g id="node11" class="node"><title>SharedRoutesModule</title>
<polygon fill="#8dd3c7" stroke="black" points="970.809,-60 967.809,-64 946.809,-64 943.809,-60 833.191,-60 833.191,-24 970.809,-24 970.809,-60"/>
<text text-anchor="middle" x="902" y="-37.8" font-family="Times,serif" font-size="14.00">SharedRoutesModule</text>
</g>
<!-- SharedRoutesModule&#45;&gt;SharedModule -->
<g id="edge11" class="edge"><title>SharedRoutesModule&#45;&gt;SharedModule</title>
<path fill="none" stroke="black" d="M954.222,-60.002C954.222,-60.002 954.222,-73.5954 954.222,-73.5954"/>
<polygon fill="black" stroke="black" points="950.722,-73.5953 954.222,-83.5954 957.722,-73.5954 950.722,-73.5953"/>
</g>
<!-- WebBluetoothComponent -->
<g id="node14" class="node"><title>WebBluetoothComponent</title>
<polygon fill="#ffffb3" stroke="black" points="2661.48,-120 2498.52,-120 2498.52,-84 2661.48,-84 2661.48,-120"/>
<text text-anchor="middle" x="2580" y="-97.8" font-family="Times,serif" font-size="14.00">WebBluetoothComponent</text>
</g>
<!-- WebBluetoothComponent&#45;&gt;WebBleModule -->
<g id="edge16" class="edge"><title>WebBluetoothComponent&#45;&gt;WebBleModule</title>
<path fill="none" stroke="black" d="M2580,-120.248C2580,-143.018 2580,-179 2580,-179 2580,-179 2061.84,-179 2061.84,-179"/>
<polygon fill="black" stroke="black" points="2061.84,-175.5 2051.84,-179 2061.84,-182.5 2061.84,-175.5"/>
</g>
<!-- BatteryLevelComponent -->
<g id="node15" class="node"><title>BatteryLevelComponent</title>
<polygon fill="#ffffb3" stroke="black" points="2480.41,-120 2325.59,-120 2325.59,-84 2480.41,-84 2480.41,-120"/>
<text text-anchor="middle" x="2403" y="-97.8" font-family="Times,serif" font-size="14.00">BatteryLevelComponent</text>
</g>
<!-- BatteryLevelComponent&#45;&gt;WebBleModule -->
<g id="edge17" class="edge"><title>BatteryLevelComponent&#45;&gt;WebBleModule</title>
<path fill="none" stroke="black" d="M2403,-120.223C2403,-140.365 2403,-170 2403,-170 2403,-170 2061.82,-170 2061.82,-170"/>
<polygon fill="black" stroke="black" points="2061.82,-166.5 2051.82,-170 2061.82,-173.5 2061.82,-166.5"/>
</g>
<!-- HeartMonitorComponent -->
<g id="node16" class="node"><title>HeartMonitorComponent</title>
<polygon fill="#ffffb3" stroke="black" points="2308.31,-120 2149.69,-120 2149.69,-84 2308.31,-84 2308.31,-120"/>
<text text-anchor="middle" x="2229" y="-97.8" font-family="Times,serif" font-size="14.00">HeartMonitorComponent</text>
</g>
<!-- HeartMonitorComponent&#45;&gt;WebBleModule -->
<g id="edge20" class="edge"><title>HeartMonitorComponent&#45;&gt;WebBleModule</title>
<path fill="none" stroke="black" d="M2229,-120.023C2229,-137.373 2229,-161 2229,-161 2229,-161 2061.77,-161 2061.77,-161"/>
<polygon fill="black" stroke="black" points="2061.77,-157.5 2051.77,-161 2061.77,-164.5 2061.77,-157.5"/>
</g>
<!-- LuxometerComponent -->
<g id="node17" class="node"><title>LuxometerComponent</title>
<polygon fill="#ffffb3" stroke="black" points="2131.26,-120 1988.74,-120 1988.74,-84 2131.26,-84 2131.26,-120"/>
<text text-anchor="middle" x="2060" y="-97.8" font-family="Times,serif" font-size="14.00">LuxometerComponent</text>
</g>
<!-- LuxometerComponent&#45;&gt;WebBleModule -->
<g id="edge23" class="edge"><title>LuxometerComponent&#45;&gt;WebBleModule</title>
<path fill="none" stroke="black" d="M2020.17,-120.223C2020.17,-120.223 2020.17,-141.727 2020.17,-141.727"/>
<polygon fill="black" stroke="black" points="2016.67,-141.727 2020.17,-151.727 2023.67,-141.727 2016.67,-141.727"/>
</g>
<!-- UnitPipe -->
<g id="node18" class="node"><title>UnitPipe</title>
<polygon fill="#ffffb3" stroke="black" points="1970.78,-120 1905.22,-120 1905.22,-84 1970.78,-84 1970.78,-120"/>
<text text-anchor="middle" x="1938" y="-97.8" font-family="Times,serif" font-size="14.00">UnitPipe</text>
</g>
<!-- UnitPipe&#45;&gt;WebBleModule -->
<g id="edge26" class="edge"><title>UnitPipe&#45;&gt;WebBleModule</title>
<path fill="none" stroke="black" d="M1962.69,-120.223C1962.69,-120.223 1962.69,-141.727 1962.69,-141.727"/>
<polygon fill="black" stroke="black" points="1959.19,-141.727 1962.69,-151.727 1966.19,-141.727 1959.19,-141.727"/>
</g>
<!-- ApiModule -->
<g id="node27" class="node"><title>ApiModule</title>
<polygon fill="#8dd3c7" stroke="black" points="2784.05,-264 2781.05,-268 2760.05,-268 2757.05,-264 2703.95,-264 2703.95,-228 2784.05,-228 2784.05,-264"/>
<text text-anchor="middle" x="2744" y="-241.8" font-family="Times,serif" font-size="14.00">ApiModule</text>
</g>
<!-- WebBleModule&#45;&gt;ApiModule -->
<g id="edge31" class="edge"><title>WebBleModule&#45;&gt;ApiModule</title>
<path fill="none" stroke="black" d="M1999,-188.027C1999,-208.767 1999,-240 1999,-240 1999,-240 2693.95,-240 2693.95,-240"/>
<polygon fill="black" stroke="black" points="2693.95,-243.5 2703.95,-240 2693.95,-236.5 2693.95,-243.5"/>
</g>
<!-- BatteryLevelService -->
<g id="node20" class="node"><title>BatteryLevelService</title>
<ellipse fill="#fdb462" stroke="black" cx="2488" cy="-42" rx="90.3024" ry="18"/>
<text text-anchor="middle" x="2488" y="-37.8" font-family="Times,serif" font-size="14.00">BatteryLevelService</text>
</g>
<!-- BatteryLevelService&#45;&gt;BatteryLevelComponent -->
<g id="edge18" class="edge"><title>BatteryLevelService&#45;&gt;BatteryLevelComponent</title>
<path fill="none" stroke="black" d="M2438.9,-57.1405C2438.9,-57.1405 2438.9,-73.6516 2438.9,-73.6516"/>
<polygon fill="black" stroke="black" points="2435.4,-73.6515 2438.9,-83.6516 2442.4,-73.6516 2435.4,-73.6515"/>
</g>
<!-- BluetoothCore -->
<g id="node21" class="node"><title>BluetoothCore</title>
<ellipse fill="#fdb462" stroke="black" cx="2312" cy="-42" rx="67.7972" ry="18"/>
<text text-anchor="middle" x="2312" y="-37.8" font-family="Times,serif" font-size="14.00">BluetoothCore</text>
</g>
<!-- BluetoothCore&#45;&gt;BatteryLevelComponent -->
<g id="edge19" class="edge"><title>BluetoothCore&#45;&gt;BatteryLevelComponent</title>
<path fill="none" stroke="black" d="M2352.85,-56.5243C2352.85,-56.5243 2352.85,-73.7383 2352.85,-73.7383"/>
<polygon fill="black" stroke="black" points="2349.35,-73.7383 2352.85,-83.7383 2356.35,-73.7384 2349.35,-73.7383"/>
</g>
<!-- BluetoothCore&#45;&gt;HeartMonitorComponent -->
<g id="edge22" class="edge"><title>BluetoothCore&#45;&gt;HeartMonitorComponent</title>
<path fill="none" stroke="black" d="M2286.8,-59.0331C2286.8,-59.0331 2286.8,-73.8759 2286.8,-73.8759"/>
<polygon fill="black" stroke="black" points="2283.3,-73.8759 2286.8,-83.8759 2290.3,-73.876 2283.3,-73.8759"/>
</g>
<!-- BluetoothCore&#45;&gt;LuxometerComponent -->
<g id="edge25" class="edge"><title>BluetoothCore&#45;&gt;LuxometerComponent</title>
<path fill="none" stroke="black" d="M2265.45,-55.2458C2265.45,-63.2823 2265.45,-72 2265.45,-72 2265.45,-72 2082.65,-72 2082.65,-72 2082.65,-72 2082.65,-73.8568 2082.65,-73.8568"/>
<polygon fill="black" stroke="black" points="2079.15,-73.8568 2082.65,-83.8568 2086.15,-73.8568 2079.15,-73.8568"/>
</g>
<!-- HeartMonitorService -->
<g id="node22" class="node"><title>HeartMonitorService</title>
<ellipse fill="#fdb462" stroke="black" cx="2127" cy="-42" rx="93.1736" ry="18"/>
<text text-anchor="middle" x="2127" y="-37.8" font-family="Times,serif" font-size="14.00">HeartMonitorService</text>
</g>
<!-- HeartMonitorService&#45;&gt;HeartMonitorComponent -->
<g id="edge21" class="edge"><title>HeartMonitorService&#45;&gt;HeartMonitorComponent</title>
<path fill="none" stroke="black" d="M2184.97,-56.2192C2184.97,-56.2192 2184.97,-73.5621 2184.97,-73.5621"/>
<polygon fill="black" stroke="black" points="2181.47,-73.5621 2184.97,-83.5621 2188.47,-73.5622 2181.47,-73.5621"/>
</g>
<!-- LightService -->
<g id="node23" class="node"><title>LightService</title>
<ellipse fill="#fdb462" stroke="black" cx="1949" cy="-42" rx="60.8313" ry="18"/>
<text text-anchor="middle" x="1949" y="-37.8" font-family="Times,serif" font-size="14.00">LightService</text>
</g>
<!-- LightService&#45;&gt;LuxometerComponent -->
<g id="edge24" class="edge"><title>LightService&#45;&gt;LuxometerComponent</title>
<path fill="none" stroke="black" d="M1999.27,-52.1782C1999.27,-52.1782 1999.27,-73.9904 1999.27,-73.9904"/>
<polygon fill="black" stroke="black" points="1995.77,-73.9904 1999.27,-83.9904 2002.77,-73.9904 1995.77,-73.9904"/>
</g>
<!-- WebBleRoutesModule -->
<g id="node24" class="node"><title>WebBleRoutesModule</title>
<polygon fill="#8dd3c7" stroke="black" points="1881.31,-120 1878.31,-124 1857.31,-124 1854.31,-120 1736.69,-120 1736.69,-84 1881.31,-84 1881.31,-120"/>
<text text-anchor="middle" x="1809" y="-97.8" font-family="Times,serif" font-size="14.00">WebBleRoutesModule</text>
</g>
<!-- WebBleRoutesModule&#45;&gt;WebBleModule -->
<g id="edge29" class="edge"><title>WebBleRoutesModule&#45;&gt;WebBleModule</title>
<path fill="none" stroke="black" d="M1809,-120.023C1809,-137.373 1809,-161 1809,-161 1809,-161 1936.07,-161 1936.07,-161"/>
<polygon fill="black" stroke="black" points="1936.07,-164.5 1946.07,-161 1936.07,-157.5 1936.07,-164.5"/>
</g>
<!-- BrowserWebBluetooth -->
<g id="node25" class="node"><title>BrowserWebBluetooth</title>
<ellipse fill="#fdb462" stroke="black" cx="1613" cy="-102" rx="100.141" ry="18"/>
<text text-anchor="middle" x="1613" y="-97.8" font-family="Times,serif" font-size="14.00">BrowserWebBluetooth</text>
</g>
<!-- BrowserWebBluetooth&#45;&gt;WebBleModule -->
<g id="edge30" class="edge"><title>BrowserWebBluetooth&#45;&gt;WebBleModule</title>
<path fill="none" stroke="black" d="M1613,-120.223C1613,-140.365 1613,-170 1613,-170 1613,-170 1936.14,-170 1936.14,-170"/>
<polygon fill="black" stroke="black" points="1936.14,-173.5 1946.14,-170 1936.14,-166.5 1936.14,-173.5"/>
</g>
<!-- ApiRoutesModule -->
<g id="node26" class="node"><title>ApiRoutesModule</title>
<polygon fill="#8dd3c7" stroke="black" points="2820.93,-188 2817.93,-192 2796.93,-192 2793.93,-188 2701.07,-188 2701.07,-152 2820.93,-152 2820.93,-188"/>
<text text-anchor="middle" x="2761" y="-165.8" font-family="Times,serif" font-size="14.00">ApiRoutesModule</text>
</g>
<!-- ApiRoutesModule&#45;&gt;ApiModule -->
<g id="edge32" class="edge"><title>ApiRoutesModule&#45;&gt;ApiModule</title>
<path fill="none" stroke="black" d="M2744,-188.011C2744,-188.011 2744,-217.855 2744,-217.855"/>
<polygon fill="black" stroke="black" points="2740.5,-217.855 2744,-227.855 2747.5,-217.855 2740.5,-217.855"/>
</g>
<!-- WebBleModule  -->
<g id="node28" class="node"><title>WebBleModule </title>
<polygon fill="#fb8072" stroke="black" points="2809.42,-324 2700.58,-324 2700.58,-288 2809.42,-288 2809.42,-324"/>
<text text-anchor="middle" x="2755" y="-301.8" font-family="Times,serif" font-size="14.00">WebBleModule </text>
</g>
<!-- ApiModule&#45;&gt;WebBleModule  -->
<g id="edge33" class="edge"><title>ApiModule&#45;&gt;WebBleModule </title>
<path fill="none" stroke="black" stroke-dasharray="5,2" d="M2744,-264.002C2744,-264.002 2744,-277.595 2744,-277.595"/>
<polygon fill="black" stroke="black" points="2740.5,-277.595 2744,-287.595 2747.5,-277.595 2740.5,-277.595"/>
</g>
<!-- ApiModule&#45;&gt;AppModule -->
<g id="edge38" class="edge"><title>ApiModule&#45;&gt;AppModule</title>
<path fill="none" stroke="black" d="M2703.75,-252C2691.41,-252 2681.02,-252 2681.02,-252 2681.02,-252 2681.02,-315 2681.02,-315 2681.02,-315 399.983,-315 399.983,-315"/>
<polygon fill="black" stroke="black" points="399.983,-311.5 389.983,-315 399.983,-318.5 399.983,-311.5"/>
</g>
<!-- AppComponent -->
<g id="node29" class="node"><title>AppComponent</title>
<polygon fill="#ffffb3" stroke="black" points="400.94,-264 295.06,-264 295.06,-228 400.94,-228 400.94,-264"/>
<text text-anchor="middle" x="348" y="-241.8" font-family="Times,serif" font-size="14.00">AppComponent</text>
</g>
<!-- AppComponent&#45;&gt;AppModule -->
<g id="edge34" class="edge"><title>AppComponent&#45;&gt;AppModule</title>
<path fill="none" stroke="black" d="M348,-264.002C348,-264.002 348,-277.595 348,-277.595"/>
<polygon fill="black" stroke="black" points="344.5,-277.595 348,-287.595 351.5,-277.595 344.5,-277.595"/>
</g>
<!-- AppComponent  -->
<g id="node33" class="node"><title>AppComponent </title>
<polygon fill="#80b1d3" stroke="black" points="401.439,-392 292.561,-392 292.561,-356 401.439,-356 401.439,-392"/>
<text text-anchor="middle" x="347" y="-369.8" font-family="Times,serif" font-size="14.00">AppComponent </text>
</g>
<!-- AppModule&#45;&gt;AppComponent  -->
<g id="edge40" class="edge"><title>AppModule&#45;&gt;AppComponent </title>
<path fill="none" stroke="black" stroke-dasharray="1,5" d="M348,-324.223C348,-324.223 348,-345.727 348,-345.727"/>
<polygon fill="black" stroke="black" points="344.5,-345.727 348,-355.727 351.5,-345.727 344.5,-345.727"/>
</g>
<!-- BrowserModule -->
<g id="node31" class="node"><title>BrowserModule</title>
<polygon fill="#8dd3c7" stroke="black" points="271.473,-264 268.473,-268 247.473,-268 244.473,-264 164.527,-264 164.527,-228 271.473,-228 271.473,-264"/>
<text text-anchor="middle" x="218" y="-241.8" font-family="Times,serif" font-size="14.00">BrowserModule</text>
</g>
<!-- BrowserModule&#45;&gt;AppModule -->
<g id="edge36" class="edge"><title>BrowserModule&#45;&gt;AppModule</title>
<path fill="none" stroke="black" d="M218,-264.282C218,-279.948 218,-300 218,-300 218,-300 296.152,-300 296.152,-300"/>
<polygon fill="black" stroke="black" points="296.152,-303.5 306.152,-300 296.152,-296.5 296.152,-303.5"/>
</g>
<!-- AppRoutesModule -->
<g id="node32" class="node"><title>AppRoutesModule</title>
<polygon fill="#8dd3c7" stroke="black" points="146.044,-264 143.044,-268 122.044,-268 119.044,-264 23.9564,-264 23.9564,-228 146.044,-228 146.044,-264"/>
<text text-anchor="middle" x="85" y="-241.8" font-family="Times,serif" font-size="14.00">AppRoutesModule</text>
</g>
<!-- AppRoutesModule&#45;&gt;AppModule -->
<g id="edge39" class="edge"><title>AppRoutesModule&#45;&gt;AppModule</title>
<path fill="none" stroke="black" d="M85,-264.035C85,-283.576 85,-312 85,-312 85,-312 296.327,-312 296.327,-312"/>
<polygon fill="black" stroke="black" points="296.327,-315.5 306.327,-312 296.327,-308.5 296.327,-315.5"/>
</g>
</g>
</svg>
